<svg width="32" height="32" viewBox="0 0 100 100" fill="none" xmlns="http://www.w3.org/2000/svg" role="img" aria-label="Sentinel">
  <defs><linearGradient id="sg" x1="0" y1="0" x2="1" y2="1"><stop stop-color="#22D3EE"/><stop offset="1" stop-color="#4F46E5"/></linearGradient></defs>
  <rect width="100" height="100" rx="22" fill="#0B1220"/>
  <path d="M50 16 L78 27 V52 C78 70 65 82 50 89 C35 82 22 70 22 52 V27 Z" fill="url(#sg)"/>
  <path d="M50 24 L71 32 V52 C71 65 61 74 50 80 C39 74 29 65 29 52 V32 Z" fill="#0B1220"/>
  <path d="M34 51 Q50 38 66 51 Q50 64 34 51 Z" fill="none" stroke="url(#sg)" stroke-width="4.5" stroke-linejoin="round"/>
  <circle cx="50" cy="51" r="7.5" fill="url(#sg)"/><circle cx="50" cy="51" r="2.6" fill="#0B1220"/>
</svg>
